<?xml version="1.0" standalone="no"?>
<!DOCTYPE svg PUBLIC "-//W3C//DTD SVG 20010904//EN"
 "http://www.w3.org/TR/2001/REC-SVG-20010904/DTD/svg10.dtd">
<svg version="1.0" xmlns="http://www.w3.org/2000/svg"
 width="658.000000pt" height="658.000000pt" viewBox="0 0 658.000000 658.000000"
 preserveAspectRatio="xMidYMid meet">
<metadata>
Created by potrace 1.11, written by Peter Selinger 2001-2013
</metadata>
<g transform="translate(0.000000,658.000000) scale(0.100000,-0.100000)"
fill="#000000" stroke="none">
<path d="M190 3610 l0 -1390 704 0 704 0 6 38 c3 20 11 116 17 212 6 96 12
177 14 180 2 3 5 46 6 95 l2 90 -344 5 -344 5 -3 1078 -2 1077 -380 0 -380 0
0 -1390z"/>
<path d="M1704 4963 c4 -21 11 -83 16 -138 18 -175 40 -387 50 -480 5 -49 14
-133 19 -185 13 -125 38 -361 51 -480 6 -52 14 -138 20 -190 5 -52 14 -140 20
-195 16 -146 40 -376 50 -480 5 -49 14 -133 19 -185 6 -52 17 -162 26 -244 9
-82 18 -153 21 -158 3 -4 212 -8 464 -8 l458 0 6 28 c3 15 19 110 35 212 170
1048 160 990 177 990 18 0 29 -28 43 -105 6 -33 31 -161 56 -285 24 -124 69
-355 100 -515 31 -159 59 -298 61 -307 5 -17 36 -18 464 -18 l459 0 6 43 c3
23 10 94 16 157 59 683 68 785 99 1105 5 55 17 181 25 280 8 99 19 225 25 280
5 55 14 154 20 220 17 191 29 318 45 491 8 89 15 171 15 183 l0 21 -352 -2
-353 -3 -12 -215 c-7 -118 -17 -303 -23 -410 -6 -107 -15 -283 -21 -390 -6
-107 -14 -251 -17 -320 -7 -118 -8 -125 -29 -128 -26 -4 -16 -60 -128 743 -20
143 -51 364 -68 490 l-33 230 -372 3 c-293 2 -373 0 -377 -10 -4 -11 -45 -329
-76 -583 -4 -38 -15 -124 -24 -190 -9 -66 -20 -154 -25 -195 -5 -41 -21 -164
-35 -273 -14 -109 -25 -202 -25 -207 0 -6 -11 -10 -23 -10 -26 0 -22 -31 -62
480 -20 257 -34 426 -45 555 -5 61 -15 183 -21 273 l-12 162 -369 0 -370 0 6
-37z"/>
<path d="M4686 4988 c-3 -7 -7 -60 -10 -118 -3 -58 -13 -201 -20 -319 -8 -118
-13 -218 -10 -223 3 -4 126 -8 275 -8 l269 0 0 -1050 0 -1050 383 2 382 3 3
1048 2 1047 248 0 c136 0 252 4 258 8 6 4 16 83 23 192 7 102 17 235 22 295 5
61 9 127 9 148 l0 37 -915 0 c-724 0 -916 -3 -919 -12z"/>
</g>
</svg>
